<?xml version="1.0" encoding="UTF-8"?>
<svg id="Layer_2" data-name="Layer 2" xmlns="http://www.w3.org/2000/svg" viewBox="0 0 41.25 81.66">
  <defs>
    <style>
      .cls-1 {
        fill: #c51f45;
      }
    </style>
  </defs>
  <g id="Layer_1-2" data-name="Layer 1">
    <path class="cls-1" d="M1.32,43.49h8.95v36.85c0,.73.59,1.32,1.32,1.32h15.18c.73,0,1.32-.59,1.32-1.32v-36.68h10.29c.67,0,1.23-.5,1.31-1.17l1.56-13.57c.04-.37-.08-.75-.33-1.03-.25-.28-.61-.44-.98-.44h-11.85v-8.5c0-2.56,1.38-3.86,4.1-3.86h7.75c.73,0,1.32-.59,1.32-1.32V1.33c0-.73-.59-1.32-1.32-1.32h-10.68c-.08,0-.24-.01-.49-.01-1.85,0-8.3.36-13.38,5.04-5.64,5.19-4.85,11.4-4.67,12.48v9.95H1.32c-.73,0-1.32.59-1.32,1.32v13.39c0,.73.59,1.32,1.32,1.32h0Z"/>
  </g>
</svg>