<?xml version="1.0" encoding="UTF-8"?>
<svg id="Layer_2" data-name="Layer 2" xmlns="http://www.w3.org/2000/svg" viewBox="0 0 88.42 88.42">
  <defs>
    <style>
      .cls-1 {
        fill: #c51f45;
      }
    </style>
  </defs>
  <g id="Layer_1-2" data-name="Layer 1">
    <g>
      <path class="cls-1" d="M44.21,7.97c11.8,0,13.2.05,17.86.26,4.31.2,6.65.92,8.21,1.52,2.06.8,3.54,1.76,5.08,3.31,1.55,1.55,2.51,3.02,3.31,5.08.61,1.56,1.33,3.9,1.52,8.21.21,4.66.26,6.06.26,17.86s-.05,13.2-.26,17.86c-.2,4.31-.92,6.65-1.52,8.21-.8,2.06-1.76,3.54-3.31,5.08s-3.02,2.51-5.08,3.31c-1.56.61-3.9,1.33-8.21,1.52-4.66.21-6.06.26-17.86.26s-13.2-.05-17.86-.26c-4.31-.2-6.65-.92-8.21-1.52-2.06-.8-3.54-1.76-5.08-3.31-1.55-1.55-2.51-3.02-3.31-5.08-.61-1.56-1.33-3.9-1.52-8.21-.21-4.66-.26-6.06-.26-17.86s.05-13.2.26-17.86c.2-4.31.92-6.65,1.52-8.21.8-2.06,1.76-3.54,3.31-5.08s3.02-2.51,5.08-3.31c1.56-.61,3.9-1.33,8.21-1.52,4.66-.21,6.06-.26,17.86-.26M44.21,0c-12.01,0-13.51.05-18.23.27-4.71.21-7.92.96-10.73,2.05-2.91,1.13-5.37,2.64-7.83,5.1-2.46,2.46-3.97,4.92-5.1,7.83-1.09,2.81-1.84,6.03-2.05,10.73-.22,4.72-.27,6.22-.27,18.23s.05,13.51.27,18.23c.21,4.71.96,7.92,2.05,10.73,1.13,2.91,2.64,5.37,5.1,7.83,2.46,2.46,4.92,3.97,7.83,5.1,2.81,1.09,6.03,1.84,10.73,2.05,4.72.22,6.22.27,18.23.27s13.51-.05,18.23-.27c4.71-.21,7.92-.96,10.73-2.05,2.91-1.13,5.37-2.64,7.83-5.1,2.46-2.46,3.97-4.92,5.1-7.83,1.09-2.81,1.84-6.03,2.05-10.73.22-4.72.27-6.22.27-18.23s-.05-13.51-.27-18.23c-.21-4.71-.96-7.92-2.05-10.73-1.13-2.91-2.64-5.37-5.1-7.83-2.46-2.46-4.92-3.97-7.83-5.1-2.81-1.09-6.03-1.84-10.73-2.05-4.72-.22-6.22-.27-18.23-.27h0Z"/>
      <path class="cls-1" d="M44.21,21.51c-12.54,0-22.7,10.16-22.7,22.7s10.16,22.7,22.7,22.7,22.7-10.16,22.7-22.7-10.16-22.7-22.7-22.7ZM44.21,58.95c-8.14,0-14.74-6.6-14.74-14.74s6.6-14.74,14.74-14.74,14.74,6.6,14.74,14.74-6.6,14.74-14.74,14.74Z"/>
      <circle class="cls-1" cx="67.81" cy="20.61" r="5.31"/>
    </g>
  </g>
</svg>